PathFileType	4	(X/Y/Z)	Falisse_et_al_2022_v1.trc
DataRate	CameraRate	NumFrames	NumMarkers	Units	OrigDataRate	OrigDataStartFrame	OrigNumFrames
0	0	4	47	m	0	50	200
Frame#	Time	RASI			LASI			CLAV			RSHO			LSHO			RKNE			RKNE_med			RTHI1			RTHI2			RTHI3			RANK			RANK_med			RTIB1			RTIB2			RTIB3			LKNE			LKNE_med			LTHI1			LTHI2			LTHI3			LANK			LANK_med			LTIB1			LTIB2			LTIB3			RPSI			LPSI			RELB			LELB			RW1			RW2			LW1			LW2			hum_l2			hum_r2			rad_l2			rad_r2			LH			RH			Foot_r1			Foot_r4			Foot_r6			Foot_r7			foot_l1			foot_l4			foot_l6			foot_l7		
		X1	Y1	Z1	X2	Y2	Z2	X3	Y3	Z3	X4	Y4	Z4	X5	Y5	Z5	X6	Y6	Z6	X7	Y7	Z7	X8	Y8	Z8	X9	Y9	Z9	X10	Y10	Z10	X11	Y11	Z11	X12	Y12	Z12	X13	Y13	Z13	X14	Y14	Z14	X15	Y15	Z15	X16	Y16	Z16	X17	Y17	Z17	X18	Y18	Z18	X19	Y19	Z19	X20	Y20	Z20	X21	Y21	Z21	X22	Y22	Z22	X23	Y23	Z23	X24	Y24	Z24	X25	Y25	Z25	X26	Y26	Z26	X27	Y27	Z27	X28	Y28	Z28	X29	Y29	Z29	X30	Y30	Z30	X31	Y31	Z31	X32	Y32	Z32	X33	Y33	Z33	X34	Y34	Z34	X35	Y35	Z35	X36	Y36	Z36	X37	Y37	Z37	X38	Y38	Z38	X39	Y39	Z39	X40	Y40	Z40	X41	Y41	Z41	X42	Y42	Z42	X43	Y43	Z43	X44	Y44	Z44	X45	Y45	Z45	X46	Y46	Z46	X47	Y47	Z47
50	0.55133205	0.7284389148816327	0.9009291765801879	0.1334443116251207	0.7554537751685816	0.9100061758053445	-0.12132548034932517	0.7614881845493687	1.3330927247536226	0.00808549811347591	0.6558288876730961	1.3668978400275258	0.18824496340457658	0.6878041690934636	1.3737578627527391	-0.1545709205775479	0.5140691353926294	0.43970437917808197	0.10805353268179782	0.45694620841294775	0.4438083349795852	0.0047822125700860835	0.6711320642206544	0.7028346576394464	0.17844763194635324	0.6120098346152555	0.717109101521262	0.20368974548618315	0.6297856234862874	0.663963723411154	0.18608810178230895	0.2887235345236444	0.11424682681260512	0.08621353677593364	0.30545018221299947	0.1312084614609183	0.004391416863023467	0.420192521829157	0.2863641902652836	0.11832767057874635	0.35334884916315124	0.3123223615496521	0.13355149089125645	0.37195529670211674	0.25900916725443246	0.12257680406957697	0.873024006690618	0.4861355695021799	-0.10593666776331281	0.8504522245572763	0.4758188452209093	-0.014373203743727248	0.850461764955994	0.718805132272097	-0.10567844213946823	0.8202334427496956	0.6990305083021	-0.16532579925696184	0.858079814238096	0.6638886372896333	-0.13123678128533006	0.9447625017220997	0.09651689450386747	-0.09461181450468464	0.9257694241060404	0.1078865739271706	-0.01144384012611449	0.9233209309526235	0.2971145452054683	-0.10245931817015708	0.8688609722938494	0.2777496770668073	-0.1361577203010011	0.913259875466335	0.24324899924964402	-0.11705088252795479	0.5721275386138331	0.9532643560783701	0.01620824819409469	0.5786091356636903	0.9608272738138827	-0.031243176025802843	0.6094946937607734	1.0548122944085048	0.21436553403691527	0.6056567510276539	1.0547795405407923	-0.2158435731956945	0.8671185868642192	1.0025695150502218	0.1544904823999612	0.8344136483021805	0.9307503493906629	0.15515300956041073	0.6709696329248744	0.8335359939280247	-0.28163723157889303	0.5972334302345899	0.8562156174858309	-0.30716750722940256	0.6624393754455984	1.2174984880529929	-0.21243992223907898	0.6395235963182776	1.2055418750722535	0.2166606577276508	0.6413553884119209	0.9655735856004588	-0.27037216389596413	0.7754209969211997	0.9851587238705624	0.1921454446893529	0.640021120041053	0.7903915404041468	-0.33260265912216885	0.9073087246754488	0.9521085950514147	0.16059786990373226	0.24633372933268485	0.13245291859340735	0.050981136685746414	0.3121602833711585	0.058241978799353625	0.08673679510408772	0.4109662767339617	0.019904039887022246	0.0550299810750359	0.4350917253590533	0.03771303008761359	0.01466208111365451	0.8925960652541647	0.05344389776415774	-0.05574713434870747	0.9939100658266073	0.07870632346044536	-0.09304859648769465	1.0787395258840182	0.1260504352287062	-0.05601423081256594	1.1076227701246877	0.1324886327685156	-0.01775237461631478
51	0.56235869	0.7453031563383292	0.8989415743143546	0.13311468489358178	0.7738211788636573	0.9086196909574389	-0.12146908902660922	0.778343660837859	1.3316884849661976	0.007279269965840861	0.6717550221079831	1.3656474150186086	0.18686144873771374	0.7053434166955175	1.3718383351337335	-0.15581288806226856	0.5322699910144956	0.437550315044784	0.10744569315793788	0.4765750098415537	0.4408787344081456	0.003369627252996943	0.6873955105551208	0.7016353271073977	0.17855698521201718	0.6278771113436378	0.7158317975974812	0.20289589353866525	0.646086175900737	0.6626559920230555	0.1858374230621467	0.2933942348303431	0.12033516777049602	0.08556713952943937	0.3116130395822584	0.1360061271042053	0.003806309745965915	0.4311596875443628	0.28742720340181943	0.11782749727737882	0.36522975146750186	0.3160912275040828	0.13215527407568978	0.38184786959936456	0.26200995110914743	0.12176325694405854	0.8873925235932127	0.4824115284678035	-0.10450455239982911	0.8635653106485635	0.4722748714901344	-0.013239552534359655	0.867415825993972	0.7153173935193307	-0.10431363425746489	0.8377171756739594	0.6959269181594829	-0.16435190590275078	0.8747418432847691	0.6603395738006715	-0.12982546691519334	0.9508003863038572	0.09106634054526247	-0.09312273974507507	0.9309948270334244	0.10267091486259738	-0.010177021069234668	0.9336531431572341	0.2920830892039764	-0.10080261923589551	0.8792328097627846	0.2739256774292261	-0.13522939997697422	0.9226556110597754	0.23846775400563852	-0.11563790650511209	0.5896923853586782	0.951576502567991	0.015083484715420474	0.596454652032711	0.9592511631374576	-0.032310795741827325	0.6235089678686401	1.0541265901489347	0.2134983592444722	0.6194979488275764	1.0541531008639073	-0.21689716620119767	0.8819534602581829	1.0094942428214912	0.1514760193883593	0.8515065692553706	0.9366879332178996	0.1509538941265414	0.6803834213644713	0.8326816082623142	-0.2847586342516031	0.6068399281080277	0.8568066644861985	-0.3095078594623324	0.6780412522915308	1.2162480597125338	-0.21354857089995244	0.6546591898201919	1.2046311627922024	0.2156069973048934	0.6531448447951967	0.9651248133484664	-0.272321262518896	0.7910945056592364	0.9885106496434806	0.1893418221977767	0.6482736851112596	0.7904402951598598	-0.3357622167668795	0.9237355121781827	0.9602075857084285	0.15636860301122013	0.25240265918171134	0.1401737153206657	0.05019990954151628	0.31428365723044116	0.06273825090735813	0.08616318028006713	0.4113459690915566	0.0197529624370371	0.05503575617161127	0.4362394566838972	0.03779968053253652	0.014979007469740038	0.8967439227829007	0.04984062933315729	-0.05493266112554439	0.9991893587455666	0.0718927800206958	-0.09116457029733761	1.0852258828026073	0.11611468377127077	-0.0530701322443398	1.1139617799141897	0.12133409769992012	-0.014511548118515377
52	0.57338533	0.7623377627150841	0.8970228532426052	0.1327379312595171	0.7922505826114746	0.9072527908810494	-0.12166413845635382	0.7952328670823541	1.3303411614880722	0.0064034002699747475	0.6877494617388009	1.3644341725162223	0.18542599645222585	0.722874699850175	1.369953909897264	-0.15710569403934171	0.5516269619974085	0.435137342269373	0.10703884850590789	0.4973675513704007	0.43750633659505334	0.002181130516925242	0.704135074026848	0.7005912059481993	0.17871282069706962	0.6441980923275064	0.7145634614767568	0.20213708968937194	0.6629666344726585	0.6614012072440104	0.18565242117070058	0.2988366928566988	0.12710052686720574	0.08491831240847661	0.3185176778503989	0.14138665134218753	0.0032427188870801163	0.4430105518222841	0.28864726817964814	0.11741981663898426	0.3781703620121415	0.3200979955515041	0.1308462633015304	0.39265900128764825	0.26530325937297394	0.12101994426113763	0.9012120873088844	0.47843796237139213	-0.10334364835954227	0.8761550427536531	0.4684998259243718	-0.012386702203933578	0.8841925927403129	0.7115785196595031	-0.10309022356158894	0.8549791789869317	0.6926362000861027	-0.16350842788542921	0.8911284483985098	0.6565414563498778	-0.12858336704095114	0.9548899251701582	0.08528788726140168	-0.0923382318772399	0.9343494172602179	0.09715167623742299	-0.009608209420534669	0.9427362968492835	0.2866825078715175	-0.09963465879656648	0.888319651444491	0.269948230098422	-0.1347809270425288	0.9306212558577522	0.23339067546254905	-0.11476218368641156	0.6073772942657213	0.9499193928051736	0.013970422011811909	0.6143993347962924	0.9576967179368018	-0.03336931442673922	0.6376073294970055	1.0534953057230205	0.212573118752025	0.6333498909759193	1.0536277240932488	-0.21805097870670243	0.8965523170434211	1.0157027625023363	0.1487380872209686	0.8681401990445191	0.9420947689990509	0.147107336517468	0.6902958604324763	0.8318973503933806	-0.2875603274058152	0.6169515679325573	0.8572834653663916	-0.31162997241692714	0.6936738359233547	1.2150689868177174	-0.21472719907952975	0.6698714042611582	1.2037675162934995	0.2144969894618675	0.6651847627986904	0.9646700583771977	-0.2741935165333253	0.8065389979843571	0.9915366407378455	0.18672599038382204	0.6571683074024437	0.790439066433696	-0.3385554746810563	0.9397177487575951	0.9675244246948412	0.15253875526339494	0.25938089021519595	0.14861062506512768	0.049436564526338315	0.31693084912240244	0.0679711812554542	0.08554955723632038	0.4119034392400567	0.020183146772863036	0.054983974844297095	0.43776285942305637	0.038030107680025474	0.015245414305752141	0.8989811763133587	0.045954393312830646	-0.05482213218863019	1.002424990674029	0.06472807490980659	-0.09005055951047093	1.0896001282363483	0.10570768080405776	-0.050932612919946156	1.118177835045464	0.10966016736364215	-0.012103268954925014
53	0.58441197	0.779320717748242	0.8953577117127512	0.1322971614200194	0.8104921680980508	0.90606292609701	-0.12193419101715675	0.8120505918676186	1.3291827332621675	0.005436241172436643	0.7037431220466003	1.3634239201354794	0.18393312874060008	0.740285448738888	1.3682688169734467	-0.15846049587687291	0.5720924518545851	0.43261122701160915	0.10690422551357995	0.5192463092433274	0.4338172474664931	0.0013075043365690792	0.7212058171487951	0.6998965294230798	0.17891400034939342	0.6608317054992728	0.7134702614332702	0.2014324931820146	0.6803025320190211	0.660377550169771	0.1855492104337744	0.30520065749052117	0.13464132013776553	0.08437344779304957	0.3262781903623885	0.1474591634295444	0.0028027569703523644	0.45579460955139045	0.29015484782584683	0.11718812931885876	0.39222298432513103	0.3244341552867054	0.1297278854134672	0.40446157354466616	0.2690002358229876	0.12044145264196725	0.9149260670192344	0.4747592809461871	-0.10221765210621933	0.888700717364996	0.46506214123110157	-0.011564551725174538	0.9007894421419076	0.7080923689437503	-0.10194792129972996	0.8720427215150433	0.6895595174370441	-0.16271595480333925	0.9073376413932817	0.6529932835938745	-0.12740959202436608	0.9588413667143307	0.08003583285901938	-0.09166095529637054	0.9376210707415833	0.0921933672528284	-0.00914542969030542	0.9516786119720433	0.28168407863360434	-0.0985472938284182	0.8972893077134056	0.26636684445703507	-0.1343754034737326	0.9384497594154991	0.22874052059642946	-0.11396198654110185	0.624947759540571	0.9484700576990618	0.012862742550552846	0.6322037285728079	0.9563358648831288	-0.034427071111945574	0.6517901871133067	1.0530552222237244	0.21158181526568626	0.6472766066443751	1.0532743549181451	-0.21924981852159395	0.9109824892427978	1.021171130323335	0.1462522484942801	0.8843327130313433	0.9469352921777334	0.14363036609424024	0.7007576591604843	0.8312678169411518	-0.2900152970719537	0.6276175306520483	0.8577461131342725	-0.3135229409176559	0.7093118056545044	1.2140664962529935	-0.21595914627569668	0.6851174624238452	1.2030974589868846	0.21332221065662346	0.6775332065697632	0.9643108498406203	-0.2759437995893586	0.8217722394283443	0.9942749214618234	0.18429965461869405	0.6667568462835393	0.7904773795645305	-0.3409742419844411	0.9553081870753971	0.9739912045156446	0.14910512756055158	0.267404385927076	0.15782164234940077	0.04881714319913874	0.32027883682366465	0.0740628494908114	0.08497821303787545	0.4128088699005431	0.021411026866933414	0.05491623549972443	0.4398159891651263	0.038443227056373416	0.01549223022364558	0.9011725464864974	0.042676950002367535	-0.05480385469618728	1.0054834938417185	0.0581178026040092	-0.08908099393723669	1.0936983032550216	0.09579106300756579	-0.04898212482030232	1.1220888592049618	0.09846801196696342	-0.00990290376615649
